<mxfile host="Electron" agent="Mozilla/5.0 (X11; Linux x86_64) AppleWebKit/537.36 (KHTML, like Gecko) draw.io/28.1.2 Chrome/138.0.7204.243 Electron/37.4.0 Safari/537.36" version="28.1.2">
  <diagram id="aL0MqFrMYkEeLgzsZ48K" name="Page-1">
    <mxGraphModel dx="1388" dy="830" grid="1" gridSize="10" guides="1" tooltips="1" connect="1" arrows="1" fold="1" page="1" pageScale="1" pageWidth="850" pageHeight="1100" math="1" shadow="0">
      <root>
        <mxCell id="0" />
        <mxCell id="1" parent="0" />
        <mxCell id="yOBIwnIcyAWZE2Mft_An-1" value="" style="rounded=0;whiteSpace=wrap;html=1;fillColor=none;strokeWidth=5;strokeColor=#00CC00;" vertex="1" parent="1">
          <mxGeometry x="80" y="240" width="120" height="80" as="geometry" />
        </mxCell>
        <mxCell id="yOBIwnIcyAWZE2Mft_An-2" value="" style="rounded=0;whiteSpace=wrap;html=1;fillColor=none;strokeWidth=5;strokeColor=#FF0000;" vertex="1" parent="1">
          <mxGeometry x="320" y="240" width="120" height="80" as="geometry" />
        </mxCell>
        <mxCell id="yOBIwnIcyAWZE2Mft_An-3" value="" style="rounded=0;whiteSpace=wrap;html=1;fillColor=none;strokeWidth=5;strokeColor=#FF00FF;" vertex="1" parent="1">
          <mxGeometry x="560" y="240" width="120" height="80" as="geometry" />
        </mxCell>
        <mxCell id="yOBIwnIcyAWZE2Mft_An-4" value="" style="endArrow=blockThin;html=1;rounded=0;entryX=0;entryY=0.5;entryDx=0;entryDy=0;strokeWidth=5;endFill=1;strokeColor=#00CC00;" edge="1" parent="1" target="yOBIwnIcyAWZE2Mft_An-2">
          <mxGeometry width="50" height="50" relative="1" as="geometry">
            <mxPoint x="200" y="280" as="sourcePoint" />
            <mxPoint x="250" y="230" as="targetPoint" />
          </mxGeometry>
        </mxCell>
        <mxCell id="yOBIwnIcyAWZE2Mft_An-5" value="" style="endArrow=blockThin;html=1;rounded=0;entryX=0;entryY=0.5;entryDx=0;entryDy=0;strokeWidth=5;endFill=1;strokeColor=#FF0000;" edge="1" parent="1">
          <mxGeometry width="50" height="50" relative="1" as="geometry">
            <mxPoint x="440" y="279.76" as="sourcePoint" />
            <mxPoint x="560" y="279.76" as="targetPoint" />
          </mxGeometry>
        </mxCell>
        <mxCell id="yOBIwnIcyAWZE2Mft_An-6" value="&lt;font style=&quot;color: rgb(0, 204, 0); font-size: 24px;&quot;&gt;$$\frac{k_0}{1-z^{-1}}$$&lt;/font&gt;" style="text;html=1;align=center;verticalAlign=middle;whiteSpace=wrap;rounded=0;" vertex="1" parent="1">
          <mxGeometry x="110" y="265" width="60" height="30" as="geometry" />
        </mxCell>
        <mxCell id="yOBIwnIcyAWZE2Mft_An-7" value="&lt;font style=&quot;color: rgb(255, 0, 0); font-size: 24px;&quot;&gt;&lt;b style=&quot;&quot;&gt;$$\frac{k_1}{1-z^{-1}}$$&lt;/b&gt;&lt;/font&gt;" style="text;html=1;align=center;verticalAlign=middle;whiteSpace=wrap;rounded=0;" vertex="1" parent="1">
          <mxGeometry x="350" y="265" width="60" height="30" as="geometry" />
        </mxCell>
        <mxCell id="yOBIwnIcyAWZE2Mft_An-8" value="&lt;font style=&quot;font-size: 32px; color: rgb(255, 0, 255);&quot;&gt;&lt;b style=&quot;&quot;&gt;&lt;i style=&quot;&quot;&gt;DPC&lt;/i&gt;&lt;/b&gt;&lt;/font&gt;" style="text;html=1;align=center;verticalAlign=middle;whiteSpace=wrap;rounded=0;" vertex="1" parent="1">
          <mxGeometry x="590" y="265" width="60" height="30" as="geometry" />
        </mxCell>
        <mxCell id="yOBIwnIcyAWZE2Mft_An-9" value="" style="endArrow=blockThin;html=1;rounded=0;entryX=0;entryY=0.5;entryDx=0;entryDy=0;strokeWidth=5;endFill=1;strokeColor=#CC00CC;" edge="1" parent="1">
          <mxGeometry width="50" height="50" relative="1" as="geometry">
            <mxPoint x="40" y="280" as="sourcePoint" />
            <mxPoint x="80" y="279.76" as="targetPoint" />
          </mxGeometry>
        </mxCell>
        <mxCell id="yOBIwnIcyAWZE2Mft_An-10" value="" style="endArrow=blockThin;html=1;rounded=0;entryX=0;entryY=0.5;entryDx=0;entryDy=0;strokeWidth=5;endFill=1;strokeColor=#FF00FF;" edge="1" parent="1">
          <mxGeometry width="50" height="50" relative="1" as="geometry">
            <mxPoint x="680" y="280" as="sourcePoint" />
            <mxPoint x="720" y="279.76" as="targetPoint" />
          </mxGeometry>
        </mxCell>
        <mxCell id="yOBIwnIcyAWZE2Mft_An-11" value="&lt;font style=&quot;font-size: 24px; color: rgb(204, 0, 204);&quot;&gt;$$\Delta$$&lt;/font&gt;" style="text;html=1;align=center;verticalAlign=middle;whiteSpace=wrap;rounded=0;" vertex="1" parent="1">
          <mxGeometry x="10" y="240" width="60" height="30" as="geometry" />
        </mxCell>
        <mxCell id="yOBIwnIcyAWZE2Mft_An-12" value="&lt;font style=&quot;font-size: 24px; color: rgb(0, 204, 0);&quot;&gt;$$A_0[n]$$&lt;/font&gt;" style="text;html=1;align=center;verticalAlign=middle;whiteSpace=wrap;rounded=0;" vertex="1" parent="1">
          <mxGeometry x="220" y="240" width="60" height="30" as="geometry" />
        </mxCell>
        <mxCell id="yOBIwnIcyAWZE2Mft_An-13" value="&lt;font style=&quot;font-size: 24px; color: rgb(255, 0, 0);&quot;&gt;$$A_1[n]$$&lt;/font&gt;" style="text;html=1;align=center;verticalAlign=middle;whiteSpace=wrap;rounded=0;" vertex="1" parent="1">
          <mxGeometry x="460" y="240" width="60" height="30" as="geometry" />
        </mxCell>
      </root>
    </mxGraphModel>
  </diagram>
</mxfile>
